<svg xmlns="http://www.w3.org/2000/svg" viewBox="0 0 512 512"><path d="M460.2 316.2H51.8V51.8h408.3v264.4h.1zM480.6 11H31.4C20.1 11 11 20.1 11 31.4v305.2c0 11.3 9.1 20.4 20.4 20.4h117.4L83.6 470.4c-5.6 9.8-2.3 22.3 7.5 27.9 9.7 5.6 22.2 2.2 27.9-7.5l77-133.7h120l77 133.7c5.6 9.8 18.1 13.1 27.9 7.5 9.8-5.6 13.1-18.1 7.5-27.9l-65.2-113.3h117.5c11.3 0 20.4-9.1 20.4-20.4V31.4C501 20.1 491.9 11 480.6 11z"/><path d="M92.8 279c7.8 6.6 23.7 3.2 28.7-3.5l65.8-84.3 100.1 68.7c8.9 6.1 21 4.2 27.6-4.2L422.9 118c7-8.9 5.4-21.7-3.5-28.7-8.9-6.9-21.7-5.4-28.7 3.5l-96.1 122.6-100.1-68.7c-8.9-6.1-21-4.2-27.7 4.3l-77.6 99.5c-6.9 8.7-5 21.2 3.6 28.5z"/></svg>